<svg width="256" height="107" viewBox="0 0 256 107" fill="none" xmlns="http://www.w3.org/2000/svg">
<path d="M250.364 105.521H4.09504C2.41975 101.333 0.0743299 91.1135 4.09504 83.7422C8.11576 76.3709 20.848 72.8527 26.7116 72.0151C23.0817 69.5022 16.2716 55.5088 26.7116 43.4042C35.381 33.3524 53.7955 36.5545 61.8928 39.3466C60.4967 34.5999 63.0234 22.9653 73.0751 18.2747C85.6399 12.4114 93.4442 21.1976 98.7494 25.1065C100.983 15.3339 113.157 -2.871 143.982 2.48995C168.567 6.76556 176.371 29.2948 173.3 39.3466C175.534 33.2038 202.911 25.1065 226.91 39.3466C255.767 56.4695 258.182 89.6055 250.364 105.521Z" fill="white" stroke="black" stroke-width="2.38571"/>
</svg>
